# xmcd
#
# Track frame offsets:
#	150
#	11883
#	24597
#	40369
#	52493
#	65146
#	82775
#	98197
#	115035
#	128788
#	144172
#	159676
#	174694
#	189347
#
# Disc length: 2674 seconds
#
# Revision: 1
# Processed by: cddbd v1.5.1PL0 Copyright (c) Steve Scherf et al.
# Submitted via: audiograbber 1.83.01
#
DISCID=c10a700e
DTITLE=Chasin' Steel - Bluegrass On The Fly
DYEAR=1900
DGENRE=Bluegrass
TTITLE0=Carry On
TTITLE1=Chasin' Steel
TTITLE2=Legacy
TTITLE3=Jakes Breakdown
TTITLE4=Soon I'll Be Dancin'
TTITLE5=Drink My Dinner
TTITLE6=Run With You
TTITLE7=Circle Of True Love
TTITLE8=Ole Slewfoot
TTITLE9=Heartbroke Fool
TTITLE10=Ore Boat Blues
TTITLE11=With a Little Luck
TTITLE12=Eastbound and Down
TTITLE13=Katies Song
EXTD=
EXTT0=
EXTT1=
EXTT2=
EXTT3=
EXTT4=
EXTT5=
EXTT6=
EXTT7=
EXTT8=
EXTT9=
EXTT10=
EXTT11=
EXTT12=
EXTT13=
PLAYORDER=
